<svg width="42" height="42" viewBox="0 0 42 42" fill="none" xmlns="http://www.w3.org/2000/svg">
<path d="M0 0V42H42V0H0ZM22.7812 32.8125C22.7812 36.8438 20.4375 38.7188 16.875 38.7188C13.7812 38.7188 11.9062 37.125 10.9688 35.1562L14.25 33.1875C14.8125 34.3125 15.375 35.25 16.7812 35.25C18 35.25 18.8438 34.6875 18.8438 32.7188V19.3125H22.7812V32.8125ZM32.1562 38.7188C28.5 38.7188 26.1562 37.0312 24.9375 34.6875L28.2188 32.9062C29.0625 34.2188 30.0938 35.25 32.0625 35.25C33.6562 35.25 34.7812 34.4062 34.7812 33.2812C34.7812 31.9688 33.6562 31.5 31.875 30.6562L30.8438 30.2812C28.0312 29.0625 26.1562 27.5625 26.1562 24.2812C26.1562 21.375 28.4062 19.125 31.9688 19.125C34.4062 19.125 36.2812 19.9688 37.5 22.2188L34.5 24.1875C33.75 23.0625 33.0938 22.5 31.875 22.5C30.75 22.5 30 23.25 30 24.1875C30 25.4062 30.75 25.875 32.4375 26.625L33.4688 27.0938C36.8438 28.5 38.7188 30 38.7188 33.2812C38.7188 36.8438 35.9062 38.7188 32.1562 38.7188Z" fill="#2351DC"/>
</svg>
