<svg width="44" height="44" viewBox="0 0 44 44" fill="none" xmlns="http://www.w3.org/2000/svg">
<path d="M42.1562 16.8438C41.5 13.9375 40.0938 11.7812 37.1875 11.7812H33.4375V16.1875C33.4375 19.6562 30.5312 22.5625 27.1562 22.5625H17.125C14.4062 22.5625 12.1562 24.9062 12.1562 27.625V37.1875C12.1562 39.9062 14.5 41.5 17.125 42.25C20.3125 43.1875 23.4062 43.375 27.1562 42.25C29.6875 41.5938 32.125 40.0938 32.125 37.1875V33.3438H22.1875V32.125H37.1875C40.0938 32.125 41.2188 30.0625 42.1562 27.0625C43.2812 23.875 43.1875 20.875 42.1562 16.8438ZM27.8125 35.875C28.8438 35.875 29.6875 36.8125 29.6875 37.8438C29.6875 38.875 28.8438 39.7188 27.8125 39.7188C26.7812 39.7188 25.9375 38.875 25.9375 37.8438C25.9375 36.7188 26.7812 35.875 27.8125 35.875ZM16.6562 21.3438H26.6875C29.5 21.3438 31.75 19 31.75 16.1875V6.625C31.75 3.90625 29.4062 1.9375 26.6875 1.46875C23.3125 0.90625 19.6562 0.90625 16.6562 1.46875C12.4375 2.21875 11.6875 3.8125 11.6875 6.625V10.4688H21.7188V11.7812H7.9375C5.03125 11.7812 2.5 13.4688 1.65625 16.8438C0.71875 20.6875 0.71875 23.0312 1.65625 27.0625C2.40625 29.9688 4.09375 32.125 7 32.125H10.4688V27.5312C10.4688 24.25 13.2812 21.3438 16.6562 21.3438ZM16.0938 7.9375C15.0625 7.9375 14.2188 7.09375 14.2188 6.0625C14.2188 4.9375 15.0625 4.09375 16.0938 4.09375C17.125 4.09375 17.9688 4.9375 17.9688 6.0625C17.9688 7.09375 17.125 7.9375 16.0938 7.9375Z" fill="#2351DC"/>
</svg>
